<?xml version="1.0" standalone="no"?>
<!DOCTYPE svg PUBLIC "-//W3C//DTD SVG 20010904//EN"
 "http://www.w3.org/TR/2001/REC-SVG-20010904/DTD/svg10.dtd">
<svg version="1.0" xmlns="http://www.w3.org/2000/svg"
 width="1732.000000pt" height="1338.000000pt" viewBox="0 0 1732.000000 1338.000000"
 preserveAspectRatio="xMidYMid meet">
<metadata>
Created by potrace 1.12, written by Peter Selinger 2001-2015
</metadata>
<g transform="translate(0.000000,1338.000000) scale(0.100000,-0.100000)"
fill="#000000" stroke="none">
<path d="M0 6690 l0 -6690 8660 0 8660 0 0 6690 c0 4048 -4 6690 -9 6690 -5 0
-11 -6 -14 -12 -3 -10 -9 -10 -26 0 -16 9 -1764 12 -8646 12 l-8625 0 0 -6690z
m10573 5948 c12 -13 48 -55 80 -95 31 -40 111 -126 176 -193 66 -66 132 -135
147 -153 14 -17 66 -75 115 -127 49 -52 105 -115 125 -140 20 -25 85 -97 144
-160 59 -63 134 -146 165 -184 32 -37 68 -78 79 -90 40 -41 111 -122 136 -155
14 -18 34 -43 46 -54 12 -12 48 -56 80 -97 85 -107 86 -108 121 -149 18 -20
33 -39 33 -43 0 -4 6 -13 13 -20 7 -7 43 -49 81 -92 76 -89 145 -163 224 -241
28 -29 52 -55 52 -58 0 -3 34 -40 75 -82 41 -42 75 -79 75 -82 0 -3 8 -13 18
-22 10 -9 47 -47 82 -86 34 -38 87 -96 117 -127 29 -32 53 -60 53 -63 0 -3 20
-26 45 -53 25 -26 45 -50 45 -54 0 -4 22 -31 50 -60 31 -33 50 -62 50 -78 0
-14 7 -36 15 -50 8 -14 14 -44 15 -67 0 -23 4 -44 9 -48 11 -6 7 -57 -15 -205
-28 -187 -65 -469 -89 -685 -13 -121 -29 -260 -35 -310 -6 -49 -12 -108 -15
-130 -2 -22 -8 -83 -14 -135 -7 -52 -16 -135 -21 -185 -5 -49 -14 -128 -20
-175 -6 -47 -17 -150 -25 -230 -8 -80 -19 -185 -24 -235 -6 -49 -17 -154 -25
-233 -9 -79 -18 -155 -20 -170 -28 -181 -30 -266 -8 -309 7 -12 12 -29 12 -38
0 -21 -142 -161 -435 -430 -116 -106 -141 -131 -537 -520 -237 -233 -340 -332
-565 -545 -388 -366 -717 -690 -763 -748 -61 -80 -125 -162 -156 -205 -20 -26
-40 -47 -44 -47 -4 0 -19 -25 -31 -56 -23 -55 -56 -84 -95 -84 -9 0 -33 18
-51 40 -60 69 -110 97 -198 109 -43 6 -106 9 -139 6 -34 -2 -108 -7 -166 -10
-319 -16 -474 -32 -512 -51 -18 -9 -76 -15 -170 -18 -149 -5 -405 -22 -448
-30 -39 -8 -305 -35 -405 -41 -49 -4 -175 -13 -280 -21 -104 -8 -291 -19 -415
-24 -201 -10 -345 -21 -451 -37 -25 -3 -39 0 -48 11 -8 9 -21 16 -29 16 -16 0
-94 49 -100 63 -2 4 -9 13 -15 20 -7 7 -36 39 -66 72 -30 33 -86 94 -126 135
-39 41 -84 93 -100 115 -16 22 -32 42 -35 45 -4 3 -19 24 -34 47 -14 24 -31
43 -36 43 -6 0 -10 7 -10 15 0 8 -4 15 -8 15 -5 0 -34 35 -65 78 -31 42 -70
93 -86 112 -49 56 -51 58 -63 85 -6 14 -15 25 -19 25 -4 0 -10 9 -14 19 -3 11
-15 23 -26 26 -10 4 -19 10 -19 15 0 5 -36 54 -80 109 -44 54 -80 103 -80 108
0 4 -21 31 -46 58 -25 28 -57 66 -72 85 -15 19 -40 50 -57 68 -16 19 -34 42
-40 51 -9 16 -83 110 -95 121 -3 3 -17 20 -30 39 -13 19 -36 48 -51 65 -15 17
-51 60 -79 96 -28 36 -67 84 -88 107 -20 23 -39 48 -42 56 -5 13 -66 88 -117
144 -13 13 -23 28 -23 32 0 5 -16 23 -35 40 -19 17 -35 34 -35 38 0 5 -8 16
-17 24 -25 22 -53 58 -53 67 -1 16 -59 91 -115 147 l-60 60 -2 92 c-1 51 -5
98 -9 105 -5 7 -9 42 -10 78 -1 85 -21 326 -34 415 -15 108 -74 1025 -71 1125
0 14 -7 99 -15 190 -8 91 -17 208 -20 260 -3 52 -9 118 -14 145 -5 28 -14 115
-20 195 -6 80 -15 179 -20 220 -5 41 -12 116 -14 165 -3 50 -8 142 -12 205 -5
102 -16 185 -29 230 -5 19 17 50 41 54 64 12 104 30 139 62 22 20 72 63 110
97 39 33 72 64 75 68 3 4 38 24 78 44 39 21 72 41 72 46 0 5 6 9 14 9 8 0 16
3 18 8 4 8 64 49 131 86 26 15 47 32 47 39 0 7 8 17 19 22 10 6 62 44 116 85
322 247 352 268 427 309 40 21 105 56 143 76 39 21 94 54 124 74 29 20 61 41
69 46 9 6 37 29 62 52 95 87 125 113 133 113 4 0 7 6 7 14 0 7 11 21 23 29 13
9 39 32 58 53 85 94 104 114 177 186 42 43 82 78 89 78 7 0 16 6 20 13 4 6 33
33 64 59 31 26 80 70 109 98 29 27 63 53 76 56 13 3 24 10 24 16 0 5 32 40 70
77 57 56 70 75 70 99 0 27 5 32 38 41 20 6 60 11 89 11 28 0 64 5 80 11 15 6
80 19 143 29 63 10 183 30 265 45 83 14 179 30 215 36 36 5 85 14 110 19 77
18 260 48 365 60 144 16 312 44 420 71 22 5 65 13 95 18 30 5 96 18 145 30
224 52 309 72 435 101 74 17 158 36 185 42 28 7 55 15 60 19 17 11 136 47 215
64 41 9 83 21 93 26 9 5 39 12 65 16 26 3 58 12 72 19 14 7 86 24 160 38 74
14 144 27 155 29 38 9 46 7 68 -15z m-9426 -8155 c48 -31 51 -37 56 -81 2 -26
11 -87 18 -136 l14 -88 45 6 c166 22 252 29 535 42 256 11 479 -22 645 -98 25
-11 56 -26 70 -32 14 -6 47 -28 73 -48 27 -21 55 -38 62 -38 8 0 16 -8 19 -18
4 -11 17 -24 30 -31 25 -14 84 -93 133 -181 66 -117 67 -281 4 -351 -17 -18
-31 -37 -31 -41 0 -19 -147 -121 -249 -172 -63 -31 -119 -60 -125 -64 -6 -4
-33 -15 -60 -24 -27 -10 -52 -22 -55 -26 -3 -5 -42 -17 -86 -26 -44 -10 -93
-22 -110 -27 -16 -5 -68 -18 -115 -30 -47 -11 -128 -31 -180 -45 -52 -13 -108
-24 -123 -24 -16 0 -37 -4 -47 -10 -10 -5 -47 -12 -82 -15 -34 -2 -74 -7 -88
-10 -14 -3 -58 -11 -98 -19 -40 -8 -75 -16 -78 -19 -11 -11 20 -107 61 -183
25 -46 45 -90 45 -99 0 -8 4 -15 9 -15 5 0 12 -16 15 -35 4 -19 13 -47 21 -62
8 -15 17 -44 20 -63 4 -19 17 -78 30 -130 14 -52 34 -135 46 -185 29 -128 67
-238 87 -253 15 -11 15 -14 2 -22 -8 -5 -10 -10 -4 -10 6 0 14 -18 18 -40 3
-22 10 -40 15 -40 5 0 17 -30 26 -67 23 -90 64 -233 75 -258 4 -11 17 -49 28
-85 33 -105 54 -163 68 -192 8 -14 14 -38 14 -52 0 -14 4 -26 9 -26 6 0 13
-21 16 -47 3 -27 10 -56 16 -65 5 -10 9 -41 9 -70 0 -29 4 -68 10 -87 21 -75
29 -179 20 -262 -8 -71 -13 -87 -37 -109 -22 -20 -37 -25 -79 -24 -35 0 -57 6
-69 18 -19 19 -54 149 -55 203 0 17 -4 34 -9 37 -4 3 -11 28 -15 55 -4 27 -13
62 -21 78 -8 15 -15 34 -15 41 0 6 -5 12 -11 12 -6 0 -8 9 -4 21 4 13 1 27 -9
38 -9 10 -28 58 -42 107 -14 49 -35 107 -45 130 -10 22 -19 46 -19 52 0 7 -4
12 -9 12 -5 0 -11 19 -14 42 -5 48 -43 202 -56 233 -11 23 -20 58 -68 250 -19
77 -41 163 -48 190 -7 28 -21 86 -30 130 -44 210 -93 406 -112 455 -4 8 -7 17
-8 20 -14 41 -27 62 -35 54 -9 -9 -12 -42 -30 -364 -12 -211 -42 -532 -65
-700 -8 -58 -21 -157 -30 -220 -8 -63 -27 -196 -41 -295 -14 -99 -32 -229 -39
-290 -15 -134 -26 -159 -74 -174 -53 -18 -71 -17 -123 7 -34 16 -50 30 -54 48
-8 32 1 147 20 269 8 49 13 92 11 94 -3 2 0 11 4 20 5 9 11 48 14 86 5 63 13
126 47 365 6 41 13 93 15 115 2 22 13 117 25 210 11 94 23 199 26 235 25 313
32 446 24 454 -5 5 -5 17 1 29 11 19 36 353 28 361 -2 3 -38 0 -79 -5 -41 -6
-91 -13 -110 -15 -19 -2 -57 -9 -85 -15 -27 -5 -62 -12 -78 -16 -15 -3 -27 -9
-27 -14 0 -5 -16 -9 -35 -9 -19 0 -35 -4 -35 -9 0 -5 -21 -17 -46 -27 -44 -17
-47 -17 -79 1 -19 9 -41 33 -50 51 -8 18 -20 36 -25 39 -17 11 -11 61 11 89
11 14 39 37 62 50 45 27 200 60 327 71 102 9 244 30 258 39 8 5 12 51 12 144
0 75 5 211 10 302 12 188 14 329 6 337 -9 9 -109 -15 -254 -63 -176 -58 -189
-57 -258 11 -25 26 -35 45 -40 84 -4 28 -10 51 -14 51 -4 0 -15 11 -23 24 -13
19 -14 31 -6 60 l10 36 68 0 c75 0 138 10 291 45 58 13 136 30 175 38 l70 13
8 54 c9 61 5 123 -16 223 -13 61 -12 69 2 86 34 39 92 34 168 -16z m8788 -421
c22 -13 46 -31 53 -40 14 -19 16 -85 2 -165 -10 -65 -16 -162 -26 -432 -3 -99
-7 -182 -9 -185 -3 -5 -9 -512 -6 -567 1 -31 3 -33 40 -33 119 0 201 -111 140
-189 -13 -16 -30 -30 -36 -30 -7 -1 -13 -5 -13 -11 0 -6 -28 -10 -64 -10 l-65
0 -3 -97 c-6 -175 16 -761 33 -926 13 -118 12 -104 28 -357 7 -107 19 -230 26
-272 20 -129 -9 -247 -58 -234 -12 3 -34 6 -49 6 -15 0 -33 7 -42 15 -8 8 -22
15 -30 15 -37 0 -47 42 -52 212 -4 148 -20 438 -29 513 -2 17 -6 78 -10 135
-4 58 -8 125 -10 150 -2 25 -6 97 -10 160 -3 63 -10 179 -16 257 -5 78 -9 177
-9 221 0 44 -3 100 -6 126 l-7 46 -48 0 c-26 0 -101 -7 -166 -15 -65 -8 -134
-17 -153 -19 -115 -15 -141 -20 -155 -30 -14 -10 -16 -75 -20 -531 -5 -658
-18 -972 -44 -1022 -5 -10 -14 -30 -22 -46 -7 -15 -18 -27 -26 -27 -7 0 -13
-4 -13 -10 0 -16 -67 -23 -103 -9 -24 8 -43 25 -57 52 -20 35 -22 49 -16 121
3 45 9 390 13 765 l6 684 -34 -7 c-106 -19 -107 -19 -154 8 -25 15 -51 38 -57
52 -6 13 -17 24 -23 24 -16 0 -3 86 16 105 9 9 49 16 116 20 56 3 109 8 119
12 15 6 16 37 10 402 -4 218 -9 434 -11 481 -9 153 -14 293 -15 425 -2 161 -2
155 11 155 6 0 24 9 40 21 l30 21 55 -22 c30 -12 56 -26 59 -29 10 -17 40
-221 54 -371 21 -215 28 -356 37 -770 5 -250 10 -290 34 -275 9 6 319 42 423
50 52 4 90 12 92 18 2 7 9 138 15 292 6 154 15 330 20 390 6 61 13 139 15 175
8 89 24 241 35 325 11 86 20 161 27 240 3 33 10 63 16 67 17 10 56 -1 102 -30z
m6600 -282 c3 -5 16 -10 28 -10 27 -1 44 -14 76 -59 19 -28 26 -54 32 -129 10
-121 26 -239 59 -455 6 -37 15 -118 20 -180 5 -61 12 -130 15 -152 2 -22 9
-80 15 -130 6 -49 15 -124 20 -165 6 -41 17 -131 25 -200 8 -69 19 -138 24
-155 9 -30 14 -57 51 -265 12 -63 26 -140 31 -170 10 -55 24 -139 39 -240 10
-67 35 -176 49 -212 5 -14 7 -28 5 -31 -3 -3 -10 -51 -14 -106 -9 -97 -21
-131 -48 -131 -5 0 -15 -6 -21 -14 -19 -23 -70 -1 -77 32 -3 15 -10 37 -15 50
-5 13 -9 37 -9 54 0 17 -14 76 -30 132 -56 188 -63 221 -85 406 -9 74 -26 187
-37 250 -11 63 -22 133 -25 155 -4 40 -27 194 -58 380 -10 55 -21 123 -25 150
-4 28 -15 95 -25 150 -9 55 -17 110 -18 123 -4 47 -22 19 -29 -45 -16 -146
-40 -342 -50 -413 -6 -41 -12 -104 -14 -140 -2 -55 -7 -68 -29 -87 -32 -28
-51 -29 -93 -3 -18 11 -37 20 -42 20 -5 0 -30 21 -55 46 -35 37 -45 54 -45 80
0 40 -28 149 -74 289 -18 55 -44 133 -57 173 -13 39 -27 72 -31 72 -10 0 -10
-4 2 -115 9 -89 14 -189 25 -500 3 -88 10 -252 15 -365 30 -658 32 -920 8
-966 -28 -51 -43 -59 -88 -45 -21 6 -41 19 -44 29 -18 58 -56 239 -56 263 0
17 -7 44 -16 61 -13 26 -17 73 -20 242 -2 116 -8 315 -14 441 -5 127 -14 347
-20 490 -5 143 -14 341 -20 440 -5 99 -10 205 -11 235 -3 87 -28 273 -41 297
-12 24 -10 28 27 93 16 27 12 73 -10 125 -22 50 -23 73 -8 95 13 18 22 21 57
17 92 -12 106 -18 106 -43 0 -13 5 -24 12 -24 12 0 57 -46 58 -59 1 -3 2 -27
4 -53 4 -50 65 -251 78 -256 4 -2 17 -36 29 -75 12 -40 25 -76 29 -82 9 -11
85 -206 108 -278 11 -33 21 -47 32 -45 11 3 15 19 17 73 2 69 31 302 60 480
24 150 30 218 27 302 -3 88 5 104 56 116 14 4 35 15 45 26 21 21 60 27 70 11z
m-1277 -339 c93 -34 127 -72 136 -150 4 -31 16 -90 27 -131 48 -181 81 -325
119 -525 5 -27 16 -84 24 -125 8 -41 22 -113 31 -160 13 -68 21 -90 42 -107
14 -13 31 -23 36 -23 5 0 20 -11 33 -25 17 -19 21 -31 15 -43 -5 -9 -14 -29
-21 -44 -7 -15 -21 -30 -32 -34 -22 -7 -23 -29 -3 -149 8 -49 18 -110 20 -135
5 -40 18 -115 30 -175 3 -11 14 -54 25 -95 12 -41 25 -106 30 -145 10 -74 30
-166 79 -360 32 -127 38 -193 20 -242 -8 -26 -17 -32 -47 -35 -64 -8 -92 17
-106 92 -2 14 -25 84 -49 155 -25 72 -57 171 -72 220 -14 50 -30 98 -36 108
-5 9 -16 61 -25 115 -9 53 -20 101 -25 106 -5 6 -9 36 -9 68 0 32 -4 58 -9 58
-4 0 -11 33 -15 73 -3 39 -15 124 -25 187 -10 63 -17 118 -15 121 6 11 -19 16
-58 11 -65 -8 -68 -19 -81 -387 -3 -71 -10 -143 -16 -158 -6 -16 -11 -53 -11
-83 0 -30 -4 -62 -9 -72 -28 -53 -50 -168 -76 -392 -20 -181 -30 -217 -66
-251 -26 -25 -31 -26 -63 -15 -68 24 -68 21 -64 208 2 92 1 168 -2 168 -4 0
-11 15 -18 33 -10 28 -9 42 4 78 15 43 17 81 40 677 l7 172 -24 0 c-13 0 -37
7 -53 15 -15 8 -34 15 -41 15 -8 0 -30 15 -49 34 -40 37 -47 76 -20 111 13 17
27 20 95 21 44 0 83 5 88 10 5 5 11 153 14 329 3 176 11 373 18 438 9 89 9
124 0 140 -16 32 -7 172 13 193 9 8 16 20 16 27 0 6 9 30 21 54 20 40 23 43
63 43 22 0 65 -9 94 -19z m-743 -112 c5 -5 15 -9 23 -9 25 0 139 -58 145 -74
4 -9 13 -16 21 -16 14 0 102 -95 144 -156 39 -57 55 -146 48 -264 -3 -58 -13
-132 -22 -165 -8 -33 -18 -70 -21 -83 -3 -12 -9 -25 -14 -28 -5 -3 -9 -12 -9
-20 0 -26 -92 -207 -129 -254 -58 -75 -115 -124 -169 -146 -8 -4 23 -103 52
-166 18 -40 36 -89 40 -109 3 -20 18 -59 31 -88 14 -28 31 -77 39 -109 7 -31
23 -78 35 -104 11 -26 21 -56 21 -67 0 -25 20 -71 32 -71 4 0 8 -13 8 -28 0
-31 34 -137 50 -156 5 -7 12 -32 15 -56 4 -25 13 -59 21 -77 57 -128 29 -253
-57 -253 -39 0 -89 60 -89 106 0 47 -23 99 -65 145 -19 22 -35 45 -35 53 0 19
-27 107 -60 196 -16 41 -38 107 -51 145 -12 39 -28 79 -34 90 -7 11 -15 36
-19 55 -3 19 -12 49 -20 65 -8 17 -27 64 -42 105 -15 41 -32 81 -37 88 -6 7
-7 15 -3 19 3 3 0 16 -8 27 -7 12 -16 35 -20 53 -4 17 -14 34 -23 37 -13 5
-15 0 -9 -33 3 -21 8 -164 11 -317 3 -154 10 -301 14 -329 5 -27 7 -61 5 -75
-3 -14 -1 -60 4 -103 6 -54 4 -100 -5 -152 -15 -90 -25 -110 -62 -130 -26 -13
-32 -13 -69 5 -35 17 -41 25 -50 67 -18 79 -21 103 -27 216 -3 59 -10 118 -14
130 -5 12 -9 129 -10 261 -1 131 -3 242 -6 246 -2 4 -5 66 -6 138 -1 137 -4
148 -52 166 -10 3 -24 20 -30 36 -6 17 -15 30 -19 30 -12 0 -9 35 4 48 7 7 20
12 29 12 9 0 26 8 37 18 20 17 20 20 7 139 -8 67 -17 184 -20 260 -9 213 -24
337 -42 347 -8 4 -20 21 -27 38 -11 25 -10 35 6 68 16 32 17 44 8 82 -24 96 4
133 111 143 30 3 88 9 129 14 85 10 270 3 285 -10z m-7824 -32 c54 -29 79 -59
79 -96 0 -39 -56 -333 -70 -366 -4 -11 -20 -60 -35 -110 -15 -49 -36 -115 -46
-146 -10 -30 -19 -68 -19 -84 0 -31 -26 -147 -40 -180 -5 -11 -11 -36 -14 -55
-3 -19 -13 -60 -21 -90 -44 -156 -48 -212 -46 -570 2 -190 2 -372 2 -405 -4
-306 -8 -413 -18 -436 -12 -27 -19 -63 -27 -129 -11 -85 -39 -165 -67 -192
-26 -24 -32 -26 -61 -16 -38 12 -88 62 -88 88 0 9 -9 25 -20 35 -20 18 -20 27
-16 239 3 122 9 316 15 431 6 116 13 316 16 445 2 129 8 281 11 338 7 103 -6
199 -30 231 -6 7 -14 39 -17 70 -4 31 -16 88 -27 126 -12 39 -35 119 -52 180
-17 60 -35 114 -40 120 -5 6 -12 31 -16 55 -4 25 -10 50 -14 55 -4 6 -24 60
-44 120 -21 61 -41 117 -46 126 -5 9 -12 34 -16 55 -4 21 -13 45 -21 52 -19
20 -13 92 9 106 12 7 23 7 40 -2 13 -7 35 -14 49 -16 30 -3 89 -45 89 -62 0
-7 18 -32 40 -55 26 -28 41 -53 44 -78 10 -70 47 -198 66 -226 3 -5 15 -37 25
-70 10 -33 26 -82 35 -110 10 -27 21 -58 24 -67 10 -33 22 -18 45 55 20 64 34
104 61 172 59 149 84 216 110 296 16 51 34 102 40 111 5 10 10 24 10 31 0 36
53 48 101 24z m619 -5 c3 -4 22 -16 43 -27 20 -11 37 -25 37 -32 0 -7 4 -13
10 -13 20 0 22 -77 6 -233 -9 -89 -16 -191 -16 -227 -1 -36 -7 -96 -14 -135
-8 -41 -14 -129 -13 -210 1 -129 -1 -144 -23 -190 -52 -109 -113 -133 -175
-69 l-35 35 5 94 c3 53 12 106 20 122 9 17 15 58 15 108 1 44 5 114 10 155 22
173 33 314 35 458 2 136 4 154 21 167 18 14 62 12 74 -3z m703 -66 c26 -24 47
-49 47 -55 0 -6 6 -11 13 -11 30 0 46 -84 26 -137 -12 -33 -27 -43 -49 -35
-27 11 -80 54 -80 65 0 6 -10 21 -22 34 -35 37 -91 27 -131 -24 -10 -12 -22
-23 -27 -23 -24 0 -90 -90 -90 -123 0 -15 81 -34 98 -23 17 10 177 -33 227
-61 11 -6 22 -11 25 -11 61 -4 147 -75 181 -147 34 -72 17 -258 -29 -321 -34
-49 -77 -85 -107 -90 -16 -3 -51 -14 -77 -26 -27 -12 -61 -21 -76 -21 -69 -1
-201 16 -241 30 -56 20 -114 75 -109 104 5 33 126 60 216 49 65 -8 77 -7 122
13 77 35 121 149 90 231 -14 38 -55 53 -152 55 -47 1 -106 4 -129 6 -61 6
-139 48 -174 92 -28 36 -30 43 -30 128 0 110 18 157 90 233 43 44 62 56 135
81 54 18 107 29 145 30 57 1 62 -1 108 -43z m-4763 18 c36 -6 46 -18 105 -124
78 -141 128 -269 159 -405 19 -84 53 -328 61 -440 12 -170 15 -184 47 -220 38
-44 43 -81 14 -120 -34 -45 -36 -65 -23 -258 7 -98 9 -181 4 -184 -5 -3 -6
-15 -3 -27 11 -43 45 -531 44 -626 -1 -52 7 -153 16 -224 22 -162 17 -213 -28
-248 -30 -24 -36 -25 -82 -16 l-50 10 -17 81 c-9 45 -21 108 -27 140 -5 32
-12 62 -15 66 -2 5 -7 44 -10 87 -4 44 -13 103 -21 132 -19 69 -32 214 -39
453 -13 450 -16 543 -22 552 -3 5 -26 6 -52 3 -25 -4 -61 -7 -78 -6 -37 1 -34
12 -38 -140 -2 -64 -22 -249 -50 -465 -8 -60 -14 -125 -14 -144 0 -18 -5 -39
-10 -44 -6 -6 -11 -23 -11 -37 0 -14 -9 -45 -20 -68 -11 -22 -20 -48 -20 -57
0 -15 -5 -27 -32 -78 -7 -12 -17 -53 -24 -92 -12 -64 -61 -223 -74 -235 -3 -3
-12 -18 -20 -35 -22 -44 -49 -65 -84 -65 -46 0 -103 18 -110 35 -3 8 2 45 10
82 8 37 19 93 25 123 5 30 12 70 15 89 4 21 2 36 -5 41 -16 9 -24 79 -11 95
19 23 85 309 124 540 10 55 22 123 27 150 19 102 39 236 39 258 0 15 -9 26
-29 35 -70 31 -108 90 -90 141 11 32 19 36 91 46 25 3 51 11 56 18 14 17 30
122 37 247 3 58 10 137 16 175 5 39 14 120 19 180 5 61 14 146 19 190 29 225
31 260 26 300 -8 50 6 82 37 88 36 7 80 7 118 1z m562 -4 c2 -6 14 -12 27 -15
13 -2 34 -14 46 -25 51 -47 76 -537 46 -900 -7 -80 -16 -201 -20 -270 -12
-172 -14 -1021 -2 -1039 8 -12 25 -12 114 -2 96 12 109 11 144 -5 21 -10 53
-33 71 -51 18 -18 37 -33 41 -33 12 0 41 -63 41 -87 0 -30 -46 -63 -88 -65
-20 -1 -88 6 -151 16 -113 17 -115 17 -170 -4 -31 -11 -71 -19 -88 -17 -49 5
-103 38 -103 62 0 11 -12 162 -26 335 -20 245 -25 376 -24 589 1 151 3 277 5
280 3 6 19 514 18 556 -1 11 3 110 8 220 7 136 6 229 -1 290 -18 152 -18 153
47 165 55 11 61 11 65 0z m845 -40 c42 -40 52 -62 62 -131 7 -39 14 -76 17
-81 27 -43 25 -974 -1 -1254 -12 -128 -41 -315 -61 -402 -8 -34 -17 -77 -19
-95 -8 -56 -24 -288 -28 -398 -3 -88 -8 -114 -28 -154 -13 -27 -33 -54 -44
-59 -11 -6 -23 -15 -26 -20 -7 -9 -95 -3 -105 7 -3 2 -9 42 -15 88 -5 46 -13
109 -17 140 -11 82 3 326 26 459 11 63 23 147 27 185 3 39 10 102 15 140 45
322 64 654 64 1080 -1 252 -9 325 -46 408 -28 61 -18 95 31 112 43 14 121 1
148 -25z m8955 10 c9 -11 21 -20 27 -20 21 0 101 -93 126 -146 23 -48 25 -65
25 -178 0 -85 4 -126 11 -128 9 -3 9 -17 0 -55 -11 -46 -16 -51 -50 -62 -68
-20 -92 -14 -143 32 -53 48 -59 68 -35 116 19 39 24 189 7 222 -22 41 -63 15
-127 -81 -24 -36 -31 -60 -36 -115 -3 -38 -9 -81 -13 -95 -14 -46 -16 -460 -4
-560 7 -52 14 -111 16 -130 2 -19 8 -62 13 -95 5 -33 14 -89 19 -125 6 -36 18
-101 26 -145 9 -44 23 -120 30 -170 9 -55 26 -116 45 -157 17 -36 31 -70 31
-75 0 -15 44 -48 66 -50 52 -4 114 113 114 214 0 83 -57 328 -91 391 -19 36
-29 43 -61 48 -21 4 -38 10 -38 15 0 5 -5 9 -11 9 -6 0 -17 6 -25 14 -7 8 -19
16 -24 18 -16 5 -18 94 -3 109 7 7 31 16 55 20 129 25 189 38 246 53 80 20 96
20 135 -1 51 -28 67 -45 67 -68 0 -11 5 -26 10 -31 15 -15 -14 -68 -53 -98
-25 -20 -31 -32 -31 -63 1 -60 16 -167 26 -179 15 -20 17 -282 2 -359 -8 -38
-15 -89 -17 -112 -4 -44 -35 -111 -67 -145 -11 -12 -20 -26 -20 -30 0 -13 -66
-39 -134 -53 -49 -10 -66 -10 -93 1 -18 8 -40 14 -50 14 -17 0 -29 10 -101 82
-69 69 -82 85 -97 124 -9 21 -20 48 -24 59 -35 86 -53 141 -67 205 -8 40 -17
77 -20 82 -12 20 -25 112 -49 343 -8 88 -20 183 -26 211 -5 29 -11 78 -13 110
-2 33 -8 95 -15 138 -6 44 -11 116 -10 162 0 46 -2 87 -5 92 -3 5 -2 34 4 63
5 30 11 79 14 110 17 182 56 292 129 358 21 19 43 44 47 56 4 11 27 31 51 44
80 44 180 49 211 11z m-7796 -31 c16 -5 30 -32 53 -95 17 -48 30 -88 29 -89
-24 -16 -84 -24 -175 -23 -74 0 -118 -3 -127 -11 -33 -27 -45 -139 -55 -511
-18 -633 -33 -889 -66 -1115 -28 -192 -36 -322 -36 -541 0 -258 -5 -281 -74
-300 -43 -12 -42 -12 -99 44 -13 12 -26 22 -29 22 -12 0 -67 59 -67 73 0 8 -7
28 -15 43 -20 38 -19 87 4 154 28 84 49 339 66 795 3 70 8 167 24 410 5 72 9
159 10 195 1 36 6 130 11 210 5 80 10 213 10 296 l0 150 -127 12 c-189 17
-297 40 -333 72 -13 11 -27 20 -32 20 -5 0 -16 17 -25 38 -8 20 -19 39 -24 42
-5 3 -1 21 9 40 28 55 112 68 186 28 11 -6 97 -10 205 -10 160 0 194 3 246 20
36 12 115 25 200 32 77 6 142 13 144 15 4 5 58 -5 87 -16z m5444 -19 c0 -5 10
-12 23 -15 12 -4 38 -27 57 -52 29 -38 34 -53 32 -91 -1 -26 3 -60 8 -77 17
-55 40 -161 50 -236 29 -214 60 -615 60 -779 0 -52 4 -131 10 -175 9 -74 28
-479 33 -725 l2 -105 60 3 c33 2 84 7 114 12 30 6 109 13 177 16 119 7 124 6
176 -19 82 -40 127 -98 119 -152 -4 -24 -38 -58 -50 -50 -5 3 -12 1 -16 -5 -9
-14 -62 -12 -120 5 -54 17 -170 14 -219 -5 -15 -5 -32 -8 -37 -4 -19 12 -205
-18 -256 -41 -66 -31 -126 -35 -152 -11 -11 10 -24 15 -29 12 -17 -10 -43 43
-47 95 -2 27 -7 58 -10 69 -4 12 -1 28 7 37 9 12 14 68 16 212 4 202 -17 539
-59 951 -10 107 -21 227 -24 265 -3 39 -7 99 -10 135 -3 36 -7 108 -10 160
-11 242 -17 310 -31 382 -11 56 -12 83 -5 97 6 11 11 29 11 40 0 34 35 61 80
61 22 0 40 -4 40 -10z m-8566 -87 c4 -4 31 -8 59 -8 77 -1 141 -23 155 -54 27
-57 7 -131 -36 -131 -11 0 -24 -4 -27 -10 -3 -5 -38 -10 -76 -10 -39 0 -85 -7
-105 -15 -20 -8 -50 -15 -68 -16 -60 -2 -166 -21 -166 -30 0 -5 -6 -9 -13 -9
-7 0 -21 -6 -30 -12 -16 -12 -17 -47 -19 -368 l-1 -355 99 -2 c54 -2 128 -8
164 -14 36 -6 70 -10 75 -8 6 1 17 0 25 -3 8 -4 23 -9 32 -12 9 -3 24 -19 33
-36 21 -41 7 -75 -48 -114 -39 -27 -45 -28 -115 -23 -50 4 -92 1 -130 -9 -35
-10 -75 -13 -104 -10 l-46 6 -6 -72 c-4 -40 -6 -93 -5 -118 2 -25 2 -144 1
-265 -1 -121 -2 -267 -2 -325 -1 -131 7 -146 65 -123 88 33 126 40 184 30 44
-7 62 -15 83 -40 33 -38 36 -77 8 -102 -25 -23 -115 -54 -156 -55 -42 0 -96
-20 -115 -42 -9 -10 -21 -18 -26 -18 -5 0 -19 -13 -30 -29 -35 -46 -94 -70
-149 -60 -101 19 -144 62 -130 131 4 18 7 43 6 56 0 12 -1 37 -2 55 -1 17 2
66 5 107 3 41 9 212 12 380 6 343 22 695 34 755 10 50 13 149 14 490 l1 270
-27 57 c-32 68 -32 66 -5 89 24 22 27 22 168 23 106 1 214 15 305 40 58 16 99
19 109 9z m9853 -16 c3 -4 21 -7 40 -7 82 0 123 -21 212 -110 93 -92 131 -135
131 -148 0 -5 8 -17 18 -28 34 -37 89 -191 115 -324 58 -286 67 -370 74 -625
6 -278 -7 -402 -73 -679 -18 -75 -65 -196 -76 -196 -4 0 -8 -5 -8 -11 0 -15
-48 -71 -74 -86 -98 -56 -122 -63 -185 -56 -37 3 -65 11 -68 19 -2 7 -17 16
-33 19 -15 3 -36 15 -46 26 -9 10 -21 19 -25 19 -17 0 -115 89 -149 136 -62
85 -146 277 -191 439 -42 151 -51 234 -55 495 -5 306 6 435 62 745 5 31 18 64
37 100 6 11 17 34 26 50 13 27 61 98 101 149 31 41 71 75 93 79 30 5 66 2 74
-6z m-1912 -510 c76 4 123 -17 181 -82 29 -33 56 -72 59 -87 4 -14 13 -32 21
-39 9 -7 30 -33 47 -58 17 -25 37 -52 44 -59 7 -7 16 -25 19 -40 4 -15 15 -43
25 -63 23 -46 67 -202 85 -299 22 -118 15 -465 -11 -550 -3 -8 -7 -37 -9 -64
-4 -43 -24 -107 -57 -181 -23 -54 -49 -132 -49 -150 0 -20 -29 -42 -115 -90
-51 -29 -220 -65 -305 -65 -54 0 -70 5 -124 37 -33 20 -62 41 -64 45 -2 4 -9
8 -15 8 -10 0 -52 42 -86 86 -4 5 -23 40 -40 78 -120 250 -134 675 -35 1076
53 215 71 251 189 380 114 125 123 131 163 123 20 -4 55 -7 77 -6z m-2997
-367 c17 -11 32 -23 32 -27 0 -5 21 -30 45 -56 28 -30 48 -63 55 -90 6 -23 15
-51 21 -61 15 -26 69 -195 69 -216 0 -9 4 -20 9 -26 4 -5 14 -31 21 -59 7 -27
21 -69 31 -92 10 -24 19 -47 19 -52 0 -5 43 -11 95 -13 52 -2 95 0 95 5 0 4
28 7 63 7 73 0 117 -22 142 -71 14 -26 15 -36 5 -55 -21 -38 -119 -64 -244
-64 -88 0 -100 -9 -85 -64 6 -21 16 -75 24 -120 7 -44 22 -106 34 -136 12 -30
23 -69 26 -86 2 -18 11 -58 20 -89 23 -78 24 -168 2 -189 -14 -15 -20 -15 -49
-3 -42 18 -49 27 -82 117 -41 109 -88 210 -97 210 -5 0 -9 10 -9 23 0 36 -29
166 -57 251 l-25 79 -101 -7 c-109 -7 -113 -9 -122 -66 -3 -19 -13 -55 -21
-80 -31 -87 -55 -186 -68 -272 -7 -51 -19 -95 -28 -105 -9 -10 -32 -47 -50
-83 -33 -63 -35 -65 -76 -68 -67 -5 -76 11 -63 110 6 45 11 107 11 140 0 32 4
58 9 58 4 0 13 19 19 43 17 64 62 271 62 280 0 5 -26 8 -57 7 -82 -3 -85 -3
-120 29 -36 31 -53 67 -53 111 0 43 28 54 119 47 42 -3 94 -3 115 1 33 6 41
12 48 37 10 34 43 205 54 280 4 28 9 59 11 70 2 11 6 75 9 142 4 87 10 126 20
134 8 6 14 22 14 35 0 15 10 29 28 38 36 20 41 20 80 -4z m588 -157 c60 -47
120 -108 157 -159 53 -74 87 -129 87 -143 0 -8 16 -42 35 -77 22 -39 35 -76
35 -99 0 -20 5 -45 11 -57 29 -55 50 -424 26 -461 -8 -12 -17 -34 -20 -48 -6
-23 -22 -47 -88 -133 -34 -43 -107 -86 -147 -86 -47 0 -92 46 -92 94 0 31 9
45 58 95 33 34 71 84 86 117 24 50 27 66 22 123 -10 128 -23 216 -34 238 -7
12 -12 38 -12 57 0 59 -103 245 -177 322 -51 51 -69 64 -94 64 -45 0 -89 47
-89 95 0 27 8 44 29 66 26 26 36 29 94 29 59 0 68 -3 113 -37z m-855 -82 c40
-41 40 -91 0 -132 -17 -16 -33 -38 -36 -49 -3 -11 -34 -51 -68 -89 -76 -85
-117 -140 -117 -157 0 -7 -20 -36 -45 -64 -25 -28 -45 -61 -45 -73 -1 -12 -7
-33 -15 -47 -9 -16 -14 -55 -15 -106 0 -97 22 -145 107 -236 44 -47 53 -63 53
-93 0 -50 -44 -95 -93 -95 -62 0 -158 88 -220 202 l-37 66 0 144 c0 117 4 154
19 198 28 79 56 132 80 154 12 11 21 25 21 31 0 15 105 148 154 194 20 19 36
44 36 56 0 30 23 59 77 94 61 41 104 41 144 2z"/>
<path d="M10588 12168 c-3 -54 -6 -78 -16 -158 -6 -47 -14 -134 -17 -195 -7
-125 -10 -153 -25 -285 -5 -52 -17 -183 -25 -290 -8 -107 -17 -213 -19 -235
-3 -22 -8 -94 -11 -160 -3 -66 -8 -154 -10 -195 -2 -41 -7 -151 -10 -245 -4
-146 -8 -216 -20 -390 -1 -16 -3 -61 -5 -99 l-3 -70 64 3 c35 1 93 6 129 11
36 5 155 18 265 30 110 11 238 24 285 29 47 5 157 17 245 25 88 9 205 21 260
27 55 5 142 14 193 19 51 5 96 12 100 14 4 2 115 5 247 7 245 3 285 6 285 19
0 4 -32 38 -71 76 -151 146 -195 191 -229 232 -19 24 -54 64 -78 90 -42 46
-116 130 -211 241 -25 30 -68 79 -96 110 -27 31 -56 65 -65 75 -8 10 -22 26
-30 35 -8 9 -28 32 -44 51 -15 19 -47 55 -70 80 -23 25 -80 92 -126 150 -47
58 -87 107 -90 110 -3 3 -19 23 -35 45 -44 59 -233 276 -337 388 -20 21 -47
54 -60 73 -13 19 -29 34 -35 34 -7 0 -13 3 -13 8 0 4 -27 36 -60 72 -33 36
-60 68 -60 73 0 4 -7 7 -15 7 -8 0 -15 4 -15 8 0 5 -8 18 -17 30 -10 11 -27
32 -37 47 -11 14 -27 34 -35 44 -9 10 -27 32 -40 50 -28 37 -40 39 -43 9z"/>
<path d="M9890 12059 c-30 -4 -154 -18 -275 -32 -121 -15 -245 -31 -275 -37
-30 -6 -71 -12 -90 -13 -20 -2 -41 -7 -48 -11 -12 -7 -61 -16 -222 -41 -132
-20 -418 -81 -575 -122 -33 -9 -78 -19 -100 -23 -22 -4 -103 -26 -180 -49 -77
-22 -150 -41 -163 -41 -12 0 -30 -4 -40 -10 -9 -5 -51 -19 -92 -29 -41 -11
-118 -32 -170 -47 -52 -14 -119 -33 -147 -41 -30 -8 -53 -20 -53 -28 0 -7 23
-32 51 -56 28 -24 61 -53 73 -65 12 -11 44 -36 72 -55 70 -49 176 -129 197
-151 10 -10 21 -18 26 -18 4 0 16 -8 27 -17 10 -10 42 -36 69 -57 28 -22 55
-44 60 -50 6 -6 30 -26 55 -44 73 -53 400 -382 400 -402 0 -19 36 -9 65 18 17
15 66 59 110 97 44 38 102 89 128 114 26 25 57 50 67 55 11 5 20 13 20 19 0 5
201 211 448 457 402 404 486 490 614 635 44 50 38 55 -52 44z"/>
<path d="M10150 11871 c-61 -60 -110 -115 -110 -121 0 -6 -64 -75 -143 -153
-78 -78 -160 -162 -181 -187 -21 -25 -71 -79 -110 -120 -39 -41 -87 -93 -105
-115 -19 -22 -54 -62 -80 -90 -25 -27 -61 -68 -79 -90 -64 -77 -138 -159 -230
-254 -51 -53 -121 -127 -155 -166 -34 -38 -82 -92 -107 -120 -25 -27 -55 -64
-67 -81 l-22 -31 40 -41 c22 -23 43 -42 47 -42 4 0 52 -43 105 -95 54 -52 104
-95 112 -95 8 0 15 -6 15 -12 0 -7 17 -26 36 -43 20 -16 53 -47 73 -67 20 -21
41 -38 46 -38 6 0 40 -28 75 -62 l66 -63 184 1 c199 1 348 8 503 25 89 10 97
13 98 33 0 11 0 188 -1 392 -1 421 10 626 65 1194 2 25 13 115 24 200 28 221
36 350 22 350 -6 0 -61 -49 -121 -109z"/>
<path d="M7349 11253 c-1 -16 -2 -41 -3 -58 -2 -16 -6 -86 -10 -155 -3 -69
-11 -174 -16 -235 -5 -60 -14 -171 -20 -245 -6 -74 -17 -211 -25 -305 -26
-293 -33 -400 -27 -414 4 -11 25 -13 111 -7 58 3 170 9 249 13 78 3 145 10
148 15 3 4 12 8 20 8 8 0 56 40 107 90 51 49 106 102 123 117 101 92 127 118
204 202 47 51 89 99 93 107 9 15 -8 54 -24 54 -5 0 -29 19 -53 43 -25 23 -61
56 -81 72 -20 17 -53 46 -74 65 -20 19 -75 68 -122 109 -46 41 -104 94 -129
117 -25 23 -70 64 -100 91 -30 27 -96 89 -146 139 -49 50 -98 93 -107 97 -10
4 -20 15 -24 24 -9 25 -65 83 -80 83 -7 0 -14 -12 -14 -27z"/>
<path d="M6950 11160 c-30 -21 -60 -39 -66 -40 -5 0 -26 -12 -45 -26 -19 -14
-54 -36 -79 -48 -25 -12 -72 -37 -105 -56 -33 -19 -72 -40 -86 -47 -15 -7 -32
-20 -39 -28 -7 -8 -35 -29 -64 -45 -28 -17 -60 -36 -71 -43 -51 -32 -325 -239
-361 -273 -22 -21 -52 -48 -65 -59 -58 -48 -206 -172 -224 -189 -11 -10 -36
-30 -55 -45 -19 -14 -66 -51 -105 -81 -38 -31 -88 -67 -110 -82 -22 -14 -53
-38 -70 -53 -45 -39 -164 -139 -255 -213 -67 -56 -130 -118 -130 -131 0 -14
258 -5 625 24 292 23 469 34 650 40 94 4 204 8 245 11 153 9 425 24 437 24 8
0 11 61 12 218 1 119 6 314 12 432 15 350 22 750 13 750 -5 -1 -34 -19 -64
-40z"/>
<path d="M8500 10062 c-47 -48 -142 -141 -212 -207 -70 -66 -130 -125 -132
-132 -5 -11 141 -173 155 -173 8 0 100 -87 246 -232 l122 -121 33 30 c18 16
100 96 183 176 82 81 155 147 162 147 7 0 13 4 13 8 0 5 16 26 36 46 36 37 36
37 18 59 -39 46 -70 79 -88 95 -11 9 -45 41 -76 70 -31 28 -59 52 -62 52 -2 0
-42 35 -87 78 -135 127 -208 192 -217 192 -5 0 -48 -39 -94 -88z"/>
<path d="M12279 9726 c-2 -2 -119 -6 -259 -10 -241 -6 -512 -19 -645 -31 -33
-3 -82 -8 -110 -10 -56 -5 -361 -33 -443 -40 -30 -3 -57 -7 -60 -9 -4 -2 -41
-7 -82 -10 -192 -16 -261 -23 -264 -27 -10 -9 -28 -629 -21 -694 5 -38 9 -94
11 -123 2 -44 9 -61 39 -97 20 -25 57 -59 83 -77 54 -36 121 -90 168 -133 84
-79 200 -183 228 -205 17 -14 41 -35 54 -47 29 -29 31 -29 70 7 18 17 35 30
37 30 2 0 16 12 32 28 84 80 133 122 142 122 6 0 11 4 11 10 0 5 19 22 43 39
23 16 62 48 87 71 107 99 432 424 505 506 107 119 152 164 165 164 5 0 10 4
10 8 0 9 139 148 214 214 83 73 301 298 294 303 -6 4 -304 15 -309 11z"/>
<path d="M7431 9622 c-102 -6 -186 -14 -188 -16 -2 -2 -6 -113 -8 -247 -3
-134 -7 -272 -11 -306 -5 -53 -3 -63 13 -71 10 -4 137 -8 283 -7 l265 1 -2 44
c-1 25 -5 175 -9 333 l-6 288 -77 -3 c-42 -2 -159 -9 -260 -16z"/>
<path d="M6745 9580 c-55 -4 -172 -10 -260 -14 -258 -10 -369 -17 -560 -33
-196 -17 -388 -29 -615 -38 -80 -3 -151 -8 -158 -10 -14 -5 3 -38 44 -85 36
-40 108 -132 134 -170 13 -19 40 -53 59 -75 20 -22 61 -70 91 -105 78 -92 136
-156 267 -296 21 -22 92 -103 158 -179 66 -76 146 -166 178 -200 31 -34 57
-64 57 -67 0 -9 100 -108 109 -108 13 0 211 195 211 208 0 7 6 12 14 12 14 0
107 97 168 177 21 26 56 68 79 93 107 117 154 185 223 325 l34 70 4 250 3 250
-70 1 c-38 1 -115 -2 -170 -6z"/>
<path d="M9995 9559 c-227 -24 -298 -29 -382 -29 -118 0 -123 -2 -123 -54 0
-23 -4 -46 -9 -51 -25 -29 -31 -109 -21 -283 7 -97 13 -178 15 -180 2 -2 83
-10 182 -17 173 -14 487 -14 500 -1 8 8 20 331 19 506 l-1 115 -50 1 c-27 1
-86 -2 -130 -7z"/>
<path d="M8100 9161 c0 -133 3 -181 12 -187 18 -11 319 -7 330 4 10 10 5 17
-101 127 -26 28 -79 86 -117 130 -89 104 -90 105 -108 105 -12 0 -15 -27 -16
-179z"/>
<path d="M12690 9330 c0 -5 -6 -10 -13 -10 -6 0 -53 -31 -102 -70 -50 -38 -97
-75 -106 -82 -65 -50 -112 -90 -160 -135 -31 -29 -61 -53 -67 -53 -7 0 -12 -4
-12 -9 0 -9 -114 -114 -226 -207 -27 -23 -121 -113 -209 -200 -152 -150 -272
-261 -319 -294 -12 -8 -34 -26 -51 -41 -160 -141 -215 -193 -215 -203 0 -6 14
-20 30 -30 17 -10 49 -34 70 -54 22 -21 72 -66 112 -102 40 -36 139 -130 219
-210 81 -80 175 -170 209 -200 35 -30 77 -68 95 -85 17 -16 87 -82 155 -145
69 -63 137 -127 153 -142 15 -16 31 -28 36 -28 5 0 21 -14 36 -31 15 -19 30
-28 35 -23 8 8 23 114 35 254 5 55 14 119 34 240 29 174 43 252 55 325 8 44
20 114 26 155 6 41 15 91 20 110 5 19 14 64 20 100 6 36 18 99 26 140 8 41 19
108 24 149 6 41 15 82 20 91 5 9 9 25 9 36 0 10 4 44 9 74 31 176 42 248 67
460 20 167 20 230 0 230 -8 0 -15 -4 -15 -10z"/>
<path d="M4946 9250 c3 -36 10 -101 15 -145 9 -71 16 -264 34 -925 8 -296 14
-434 25 -560 6 -63 13 -144 15 -180 3 -36 7 -85 9 -110 18 -193 27 -264 32
-269 5 -5 97 88 174 175 14 16 110 110 214 209 103 99 209 200 235 225 26 25
68 63 93 85 121 106 257 238 261 255 3 12 -5 27 -20 42 -14 13 -75 81 -137
153 -61 71 -118 137 -126 145 -54 57 -176 194 -182 204 -4 7 -32 39 -63 71
-125 132 -243 263 -282 315 -23 30 -53 66 -66 80 -13 14 -27 32 -33 41 -10 19
-58 78 -124 153 -25 28 -53 62 -62 76 -18 25 -18 24 -12 -40z"/>
<path d="M9161 9183 c-22 -25 -41 -50 -41 -55 0 -4 -4 -8 -8 -8 -5 0 -14 -12
-21 -26 -6 -14 -29 -42 -51 -62 -63 -56 -56 -62 64 -62 l105 0 3 126 c2 69 0
128 -3 130 -3 2 -25 -17 -48 -43z"/>
<path d="M7476 8698 c104 -112 136 -147 166 -183 64 -76 143 -152 153 -149 14
5 -4 347 -19 356 -6 4 -83 8 -170 8 l-160 0 30 -32z"/>
<path d="M8097 8713 c-12 -11 -8 -83 5 -83 15 0 78 72 72 82 -6 10 -68 11 -77
1z"/>
<path d="M7087 8667 c-35 -44 -216 -235 -422 -445 -115 -117 -211 -218 -213
-223 -5 -13 390 -419 408 -419 4 0 16 8 28 18 54 46 63 52 71 52 5 0 11 4 13
8 5 13 206 172 217 172 6 0 11 4 11 10 0 5 21 24 48 41 26 18 49 35 52 39 3 3
30 24 60 45 50 37 85 64 114 90 6 6 31 26 56 45 25 19 47 38 48 42 2 5 9 8 17
8 7 0 18 7 25 14 9 12 -2 30 -68 98 -83 88 -180 193 -222 241 -14 16 -48 52
-77 80 -115 116 -133 125 -166 84z"/>
<path d="M8572 8628 c-77 -60 -265 -224 -364 -317 -26 -24 -58 -50 -70 -59
-38 -25 -48 -44 -48 -89 0 -47 -3 -43 99 -133 134 -118 629 -623 639 -651 11
-29 54 -1 157 100 60 60 138 136 173 168 l62 60 -4 159 c-2 87 -5 190 -5 227
l-1 68 -103 102 c-56 56 -149 154 -206 217 -172 189 -193 210 -222 210 -18 0
-54 -21 -107 -62z"/>
<path d="M9485 8630 c-4 -6 -3 -100 0 -210 l8 -199 51 -65 c28 -36 56 -65 61
-65 16 0 444 442 453 468 5 14 -22 20 -155 31 -122 10 -328 35 -385 46 -14 3
-29 0 -33 -6z"/>
<path d="M10169 8352 c-69 -70 -147 -154 -174 -187 -26 -33 -88 -100 -136
-148 -49 -49 -89 -95 -89 -103 0 -7 10 -26 23 -40 12 -15 54 -64 92 -109 78
-91 87 -103 129 -160 16 -22 37 -47 45 -56 9 -9 32 -36 51 -59 37 -47 91 -100
101 -100 3 0 22 19 42 43 19 23 88 94 152 157 64 63 173 171 241 238 67 68
128 121 134 117 6 -3 10 3 10 15 0 11 6 23 14 26 32 12 27 38 -15 76 -23 21
-44 38 -46 38 -3 0 -30 24 -61 53 -32 30 -71 67 -89 83 -17 16 -49 46 -71 66
-46 43 -214 178 -222 177 -3 0 -62 -57 -131 -127z"/>
<path d="M7760 7971 c-28 -28 -144 -132 -199 -178 -40 -33 -56 -47 -193 -174
-56 -53 -118 -110 -137 -127 -19 -17 -33 -33 -30 -36 8 -8 229 -26 417 -32
l192 -7 1 74 c0 41 2 128 4 194 4 157 -5 303 -19 308 -6 3 -22 -7 -36 -22z"/>
<path d="M10880 7724 c-69 -70 -132 -134 -141 -143 -8 -9 -31 -30 -50 -47 -55
-49 -201 -205 -239 -254 -50 -65 -60 -85 -60 -126 0 -27 -8 -43 -34 -68 l-34
-33 3 -214 2 -214 79 3 c43 1 115 7 159 12 44 5 103 12 130 15 138 15 240 27
245 30 3 2 68 6 145 10 77 4 143 9 147 11 3 2 161 7 350 10 189 3 359 7 378 9
19 1 85 4 145 5 61 2 114 5 119 8 8 4 -104 116 -214 212 -28 25 -97 89 -153
143 -56 54 -118 110 -137 125 -19 14 -47 39 -62 54 -14 15 -28 28 -31 28 -3 0
-26 19 -50 43 -24 23 -72 67 -106 97 -77 67 -106 92 -151 133 -43 38 -222 200
-269 245 -19 17 -38 32 -41 32 -3 0 -62 -57 -130 -126z"/>
<path d="M6202 7763 c-49 -49 -291 -268 -345 -313 -49 -42 -236 -229 -337
-339 -52 -57 -101 -109 -108 -115 -40 -33 -222 -237 -222 -248 0 -7 19 -8 58
-4 31 3 280 6 552 4 272 -1 612 -2 755 -2 l260 -1 -3 240 c-2 198 -5 242 -17
251 -8 6 -15 16 -15 22 0 6 -16 19 -35 28 -19 9 -35 20 -35 24 0 4 -11 19 -25
34 -14 15 -30 37 -37 51 -19 34 -377 415 -391 415 -4 0 -28 -21 -55 -47z"/>
<path d="M9533 7693 l-32 -38 -1 -155 c0 -85 4 -160 8 -166 17 -24 432 -48
432 -25 0 11 -155 207 -167 213 -5 1 -23 22 -41 44 -53 69 -144 164 -156 164
-6 0 -26 -17 -43 -37z"/>
<path d="M8108 7675 c-6 -7 -2 -133 7 -212 l6 -52 52 -5 c96 -11 237 -13 237
-5 0 5 -12 19 -26 32 -15 12 -79 73 -143 134 -115 112 -123 118 -133 108z"/>
<path d="M7107 7183 c-9 -56 6 -419 17 -431 3 -3 54 -9 113 -14 60 -4 169 -17
243 -28 74 -11 182 -22 239 -26 l104 -7 -6 93 c-4 51 -7 159 -7 240 0 102 -4
151 -12 162 -11 13 -60 18 -283 28 -148 7 -300 15 -336 17 l-66 5 -6 -39z"/>
<path d="M8149 7169 c-6 -3 -10 -37 -10 -75 1 -120 18 -391 25 -403 5 -7 24 5
55 36 26 27 78 75 116 108 159 138 315 288 315 303 0 6 -15 13 -32 16 -53 9
-459 22 -469 15z"/>
<path d="M9145 7050 c76 -76 89 -78 80 -7 -4 28 -9 55 -12 60 -2 4 -32 7 -66
7 l-61 0 59 -60z"/>
<path d="M9524 7014 c3 -44 8 -117 11 -164 11 -188 14 -199 51 -223 18 -12 38
-32 43 -44 6 -13 19 -23 28 -24 48 -2 128 2 221 13 l102 11 0 36 c2 80 9 251
15 344 7 97 7 97 -16 98 -13 0 -67 2 -119 4 -144 5 -303 16 -324 22 -17 5 -18
0 -12 -73z"/>
<path d="M8750 6893 c-103 -102 -175 -170 -215 -201 -72 -57 -225 -207 -225
-221 0 -9 10 -27 23 -41 12 -14 38 -45 57 -70 37 -49 85 -105 189 -220 38 -41
82 -91 98 -110 l31 -34 68 58 c38 32 78 65 89 75 11 9 61 53 110 97 50 44 105
94 124 110 18 16 53 53 77 82 41 51 44 58 43 111 -1 32 2 68 6 80 6 20 -6 36
-86 113 -52 49 -118 111 -148 136 -30 26 -73 64 -95 85 -22 20 -45 36 -51 36
-5 -1 -48 -40 -95 -86z"/>
<path d="M5425 6543 c-157 -10 -205 -16 -205 -25 0 -6 10 -20 23 -32 39 -38
127 -136 127 -142 0 -4 17 -23 38 -43 20 -20 71 -77 113 -127 42 -49 97 -110
123 -136 25 -26 46 -51 46 -56 0 -5 17 -27 38 -49 20 -22 82 -96 137 -163 55
-68 118 -143 140 -168 22 -25 47 -54 55 -66 8 -12 20 -27 27 -34 7 -8 25 -30
40 -50 15 -21 41 -53 58 -73 43 -52 55 -67 106 -139 26 -36 56 -74 68 -84 11
-11 21 -23 21 -28 0 -5 9 -19 21 -31 12 -12 28 -33 37 -47 9 -14 31 -43 48
-65 18 -22 61 -83 96 -135 35 -52 80 -117 100 -145 20 -27 36 -54 36 -59 0 -5
4 -12 9 -15 4 -3 22 -26 38 -51 36 -54 54 -74 61 -67 11 11 16 240 15 727 -2
685 -10 1273 -19 1281 -14 13 -1237 32 -1397 22z"/>
<path d="M7127 5897 c1 -353 2 -776 2 -939 0 -164 3 -302 6 -308 4 -6 48 31
104 87 53 54 134 132 181 173 73 65 205 185 220 200 3 3 28 23 55 44 28 22 69
59 92 83 23 24 44 43 47 43 14 0 186 141 348 284 14 13 54 43 87 66 78 52 232
192 231 209 -1 13 -40 55 -234 252 -266 267 -366 357 -408 363 -18 3 -76 10
-128 16 -52 6 -158 20 -235 30 -77 11 -183 22 -235 25 -52 4 -104 8 -115 10
-20 4 -20 -1 -18 -638z"/>
<path d="M11965 6528 c-55 -3 -227 -6 -381 -7 -155 0 -292 -2 -305 -5 -13 -3
-98 -10 -189 -16 -91 -6 -192 -15 -225 -20 -62 -9 -297 -34 -441 -45 -44 -4
-86 -10 -93 -14 -7 -5 -13 -53 -16 -137 -6 -147 -23 -472 -30 -554 -3 -30 -9
-201 -15 -380 -9 -301 -25 -578 -35 -607 -2 -7 0 -15 6 -19 10 -6 130 112 364
361 164 174 155 165 166 165 5 0 9 4 9 10 0 5 10 20 23 33 12 13 76 82 142
153 165 177 530 542 643 643 159 141 217 191 246 211 12 8 41 33 66 56 140
128 172 161 169 170 -2 5 -45 6 -104 2z"/>
<path d="M9765 6366 c-101 -11 -155 -33 -155 -62 0 -49 -57 -94 -120 -94 -21
0 -41 -4 -44 -9 -3 -4 -38 -30 -77 -57 -39 -26 -73 -54 -76 -61 -3 -7 -10 -13
-15 -13 -6 0 -25 -12 -43 -27 -62 -53 -77 -64 -101 -75 -13 -6 -24 -15 -24
-20 0 -4 -4 -8 -10 -8 -5 0 -19 -8 -29 -17 -11 -10 -26 -23 -33 -28 -16 -13
-110 -86 -121 -96 -7 -6 323 -341 605 -614 62 -60 183 -181 268 -267 85 -87
158 -158 161 -158 5 0 15 584 23 1383 l2 237 -55 -1 c-31 -1 -101 -7 -156 -13z"/>
<path d="M8610 5550 c-47 -38 -109 -90 -138 -116 -29 -26 -65 -55 -80 -65 -15
-9 -48 -37 -74 -61 -61 -56 -136 -119 -161 -137 -11 -8 -37 -32 -58 -53 -20
-21 -40 -38 -43 -38 -9 0 -97 -73 -145 -120 -20 -20 -70 -65 -111 -100 -41
-36 -84 -74 -95 -85 -11 -11 -45 -41 -75 -66 -101 -85 -385 -377 -376 -387 3
-3 52 2 108 11 334 55 421 66 873 111 202 21 638 36 1057 38 334 2 490 6 498
14 14 14 -14 45 -315 349 -132 133 -357 362 -500 508 -143 147 -264 266 -270
266 -5 0 -48 -31 -95 -69z"/>
<path d="M1840 4007 c-3 -2 -39 -7 -80 -11 -90 -7 -234 -28 -392 -58 l-118
-22 -2 -121 c-2 -139 -2 -150 -18 -355 -6 -85 -16 -182 -21 -216 -13 -86 -12
-144 4 -144 6 0 68 9 137 21 69 11 140 22 159 25 18 2 41 8 50 13 9 4 41 11
71 14 30 4 82 14 115 23 33 8 74 17 90 20 26 3 108 28 180 54 322 116 323 116
403 167 139 88 169 110 208 150 30 32 44 57 53 97 12 54 12 55 -20 103 -29 44
-136 133 -159 133 -5 0 -37 13 -71 30 -91 44 -237 70 -424 77 -88 3 -162 3
-165 0z"/>
<path d="M15317 2573 c-3 -4 -6 -76 -8 -159 -4 -172 2 -190 56 -181 60 10 85
25 85 51 0 14 -5 28 -11 32 -16 9 -49 91 -49 120 0 14 -5 35 -12 47 -6 12 -14
38 -18 57 -5 33 -31 53 -43 33z"/>
<path d="M14280 3146 c-15 -6 -39 -23 -54 -37 l-28 -26 -8 -224 c-6 -181 -5
-231 7 -258 9 -24 10 -38 3 -45 -5 -5 -10 -47 -10 -93 0 -77 2 -85 29 -115 25
-29 35 -32 95 -36 42 -3 72 0 79 7 6 6 23 11 37 11 26 0 70 36 70 56 0 6 11
21 25 34 14 13 25 33 25 44 0 11 4 33 9 50 21 67 62 384 62 475 0 75 -15 141
-32 141 -14 0 -22 2 -58 17 -39 17 -211 16 -251 -1z"/>
<path d="M3260 2553 c0 -5 -9 -73 -19 -153 -11 -80 -21 -185 -23 -235 l-3 -90
50 3 c28 2 54 8 59 12 5 5 0 89 -13 202 -27 246 -31 268 -42 268 -5 0 -9 -3
-9 -7z"/>
<path d="M12572 2833 c-68 -33 -103 -132 -127 -358 -9 -82 -21 -188 -26 -235
-14 -125 -26 -604 -16 -680 15 -125 70 -280 116 -331 17 -18 31 -39 31 -46 0
-6 6 -18 13 -25 18 -20 37 -50 43 -70 4 -10 12 -18 19 -18 7 0 19 -9 26 -20 9
-13 30 -22 60 -26 56 -8 76 9 119 101 69 147 107 360 96 544 -8 144 -94 662
-115 701 -5 9 -12 31 -16 50 -32 155 -142 422 -176 427 -8 2 -29 -5 -47 -14z"/>
<path d="M10602 2285 c-18 -19 -32 -39 -32 -44 0 -4 -7 -14 -15 -21 -34 -29
-61 -105 -90 -265 -33 -176 -22 -840 14 -901 7 -10 17 -39 24 -64 11 -40 17
-46 53 -56 30 -9 55 -9 93 -1 72 14 126 68 178 178 50 104 58 131 77 247 19
107 20 154 6 254 -5 40 -14 118 -20 173 -11 94 -40 232 -76 353 -17 58 -63
112 -133 157 -23 14 -42 25 -44 25 -2 0 -18 -16 -35 -35z"/>
<path d="M7656 1673 c-3 -16 -10 -64 -16 -107 -12 -91 -8 -97 53 -93 l38 2 -6
44 c-4 25 -15 67 -26 93 -10 27 -19 58 -19 68 0 30 -18 24 -24 -7z"/>
</g>
</svg>
